<svg width="160" height="108" viewBox="0 0 160 108" fill="none" xmlns="http://www.w3.org/2000/svg">
<mask id="path-1-outside-1_45_6" maskUnits="userSpaceOnUse" x="2" y="28" width="157" height="45" fill="black">
<rect fill="white" x="2" y="28" width="157" height="45"/>
<path d="M3.264 71V29.784H12.096L29.632 54.424V29.784H40V71H31.104L13.568 46.424V71H3.264ZM65.778 71.64C59.0793 71.64 53.9807 69.9333 50.482 66.52C46.9833 63.1067 45.234 57.7947 45.234 50.584C45.234 42.9467 46.9833 37.464 50.482 34.136C53.9807 30.808 59.0793 29.144 65.778 29.144C72.4767 29.144 77.5753 30.808 81.074 34.136C84.5727 37.464 86.322 42.9467 86.322 50.584C86.322 57.7947 84.5727 63.1067 81.074 66.52C77.5753 69.9333 72.4767 71.64 65.778 71.64ZM65.778 62.872C69.234 62.872 71.7513 61.8907 73.33 59.928C74.9513 57.9227 75.762 54.808 75.762 50.584C75.762 45.976 74.9513 42.7333 73.33 40.856C71.7513 38.936 69.234 37.976 65.778 37.976C62.2793 37.976 59.7193 38.936 58.098 40.856C56.5193 42.7333 55.73 45.976 55.73 50.584C55.73 54.808 56.5193 57.9227 58.098 59.928C59.7193 61.8907 62.2793 62.872 65.778 62.872ZM100.488 71V37.72H88.3915V29.784H122.888V37.72H110.792V71H100.488ZM127.514 71V29.784H157.914V37.72H137.818V46.36H155.546V54.424H137.818V63.064H157.914V71H127.514Z"/>
</mask>
<path d="M3.264 71V29.784H12.096L29.632 54.424V29.784H40V71H31.104L13.568 46.424V71H3.264ZM65.778 71.64C59.0793 71.64 53.9807 69.9333 50.482 66.52C46.9833 63.1067 45.234 57.7947 45.234 50.584C45.234 42.9467 46.9833 37.464 50.482 34.136C53.9807 30.808 59.0793 29.144 65.778 29.144C72.4767 29.144 77.5753 30.808 81.074 34.136C84.5727 37.464 86.322 42.9467 86.322 50.584C86.322 57.7947 84.5727 63.1067 81.074 66.52C77.5753 69.9333 72.4767 71.64 65.778 71.64ZM65.778 62.872C69.234 62.872 71.7513 61.8907 73.33 59.928C74.9513 57.9227 75.762 54.808 75.762 50.584C75.762 45.976 74.9513 42.7333 73.33 40.856C71.7513 38.936 69.234 37.976 65.778 37.976C62.2793 37.976 59.7193 38.936 58.098 40.856C56.5193 42.7333 55.73 45.976 55.73 50.584C55.73 54.808 56.5193 57.9227 58.098 59.928C59.7193 61.8907 62.2793 62.872 65.778 62.872ZM100.488 71V37.72H88.3915V29.784H122.888V37.72H110.792V71H100.488ZM127.514 71V29.784H157.914V37.72H137.818V46.36H155.546V54.424H137.818V63.064H157.914V71H127.514Z" fill="black"/>
<path d="M3.264 71H2.264V72H3.264V71ZM3.264 29.784V28.784H2.264V29.784H3.264ZM12.096 29.784L12.9107 29.2042L12.6117 28.784H12.096V29.784ZM29.632 54.424L28.8173 55.0038L30.632 57.5537V54.424H29.632ZM29.632 29.784V28.784H28.632V29.784H29.632ZM40 29.784H41V28.784H40V29.784ZM40 71V72H41V71H40ZM31.104 71L30.29 71.5808L30.5891 72H31.104V71ZM13.568 46.424L14.382 45.8432L12.568 43.3009V46.424H13.568ZM13.568 71V72H14.568V71H13.568ZM4.264 71V29.784H2.264V71H4.264ZM3.264 30.784H12.096V28.784H3.264V30.784ZM11.2813 30.3638L28.8173 55.0038L30.4467 53.8442L12.9107 29.2042L11.2813 30.3638ZM30.632 54.424V29.784H28.632V54.424H30.632ZM29.632 30.784H40V28.784H29.632V30.784ZM39 29.784V71H41V29.784H39ZM40 70H31.104V72H40V70ZM31.918 70.4192L14.382 45.8432L12.754 47.0048L30.29 71.5808L31.918 70.4192ZM12.568 46.424V71H14.568V46.424H12.568ZM13.568 70H3.264V72H13.568V70ZM50.482 66.52L49.7837 67.2358L50.482 66.52ZM50.482 34.136L51.1712 34.8606L51.1712 34.8606L50.482 34.136ZM81.074 66.52L81.7723 67.2358L81.7723 67.2358L81.074 66.52ZM73.33 59.928L72.5524 59.2993L72.5508 59.3012L73.33 59.928ZM73.33 40.856L72.5576 41.4911L72.5653 41.5005L72.5732 41.5096L73.33 40.856ZM58.098 40.856L57.334 40.2108L57.3326 40.2124L58.098 40.856ZM58.098 59.928L57.3123 60.5466L57.3195 60.5558L57.327 60.5649L58.098 59.928ZM65.778 70.64C59.2418 70.64 54.4319 68.9765 51.1803 65.8042L49.7837 67.2358C53.5294 70.8902 58.9169 72.64 65.778 72.64V70.64ZM51.1803 65.8042C47.9501 62.6528 46.234 57.6531 46.234 50.584H44.234C44.234 57.9363 46.0166 63.5606 49.7837 67.2358L51.1803 65.8042ZM46.234 50.584C46.234 43.0653 47.9607 37.9144 51.1712 34.8606L49.7928 33.4114C46.0059 37.0136 44.234 42.828 44.234 50.584H46.234ZM51.1712 34.8606C54.4221 31.7682 59.2355 30.144 65.778 30.144V28.144C58.9232 28.144 53.5392 29.8478 49.7928 33.4114L51.1712 34.8606ZM65.778 30.144C72.3205 30.144 77.1339 31.7682 80.3848 34.8606L81.7632 33.4114C78.0168 29.8478 72.6328 28.144 65.778 28.144V30.144ZM80.3848 34.8606C83.5953 37.9144 85.322 43.0653 85.322 50.584H87.322C87.322 42.828 85.5501 37.0136 81.7632 33.4114L80.3848 34.8606ZM85.322 50.584C85.322 57.6531 83.6059 62.6528 80.3757 65.8042L81.7723 67.2358C85.5394 63.5606 87.322 57.9363 87.322 50.584H85.322ZM80.3757 65.8042C77.1241 68.9765 72.3142 70.64 65.778 70.64V72.64C72.6391 72.64 78.0266 70.8902 81.7723 67.2358L80.3757 65.8042ZM65.778 63.872C69.4174 63.872 72.2767 62.833 74.1092 60.5548L72.5508 59.3012C71.2259 60.9484 69.0506 61.872 65.778 61.872V63.872ZM74.1076 60.5567C75.9395 58.291 76.762 54.9018 76.762 50.584H74.762C74.762 54.7142 73.9632 57.5543 72.5524 59.2993L74.1076 60.5567ZM76.762 50.584C76.762 45.9175 75.9528 42.363 74.0868 40.2024L72.5732 41.5096C73.9499 43.1037 74.762 46.0345 74.762 50.584H76.762ZM74.1024 40.2209C72.2676 37.9894 69.4104 36.976 65.778 36.976V38.976C69.0576 38.976 71.235 39.8826 72.5576 41.4911L74.1024 40.2209ZM65.778 36.976C62.1056 36.976 59.2114 37.9875 57.334 40.2108L58.862 41.5012C60.2272 39.8845 62.4531 38.976 65.778 38.976V36.976ZM57.3326 40.2124C55.5168 42.3718 54.73 45.9214 54.73 50.584H56.73C56.73 46.0306 57.5219 43.0949 58.8634 41.4996L57.3326 40.2124ZM54.73 50.584C54.73 54.8974 55.5296 58.2821 57.3123 60.5466L58.8837 59.3094C57.509 57.5632 56.73 54.7186 56.73 50.584H54.73ZM57.327 60.5649C59.2024 62.835 62.0988 63.872 65.778 63.872V61.872C62.4599 61.872 60.2363 60.9463 58.869 59.2911L57.327 60.5649ZM100.488 71H99.4875V72H100.488V71ZM100.488 37.72H101.488V36.72H100.488V37.72ZM88.3915 37.72H87.3915V38.72H88.3915V37.72ZM88.3915 29.784V28.784H87.3915V29.784H88.3915ZM122.888 29.784H123.888V28.784H122.888V29.784ZM122.888 37.72V38.72H123.888V37.72H122.888ZM110.792 37.72V36.72H109.792V37.72H110.792ZM110.792 71V72H111.792V71H110.792ZM101.488 71V37.72H99.4875V71H101.488ZM100.488 36.72H88.3915V38.72H100.488V36.72ZM89.3915 37.72V29.784H87.3915V37.72H89.3915ZM88.3915 30.784H122.888V28.784H88.3915V30.784ZM121.888 29.784V37.72H123.888V29.784H121.888ZM122.888 36.72H110.792V38.72H122.888V36.72ZM109.792 37.72V71H111.792V37.72H109.792ZM110.792 70H100.488V72H110.792V70ZM127.514 71H126.514V72H127.514V71ZM127.514 29.784V28.784H126.514V29.784H127.514ZM157.914 29.784H158.914V28.784H157.914V29.784ZM157.914 37.72V38.72H158.914V37.72H157.914ZM137.818 37.72V36.72H136.818V37.72H137.818ZM137.818 46.36H136.818V47.36H137.818V46.36ZM155.546 46.36H156.546V45.36H155.546V46.36ZM155.546 54.424V55.424H156.546V54.424H155.546ZM137.818 54.424V53.424H136.818V54.424H137.818ZM137.818 63.064H136.818V64.064H137.818V63.064ZM157.914 63.064H158.914V62.064H157.914V63.064ZM157.914 71V72H158.914V71H157.914ZM128.514 71V29.784H126.514V71H128.514ZM127.514 30.784H157.914V28.784H127.514V30.784ZM156.914 29.784V37.72H158.914V29.784H156.914ZM157.914 36.72H137.818V38.72H157.914V36.72ZM136.818 37.72V46.36H138.818V37.72H136.818ZM137.818 47.36H155.546V45.36H137.818V47.36ZM154.546 46.36V54.424H156.546V46.36H154.546ZM155.546 53.424H137.818V55.424H155.546V53.424ZM136.818 54.424V63.064H138.818V54.424H136.818ZM137.818 64.064H157.914V62.064H137.818V64.064ZM156.914 63.064V71H158.914V63.064H156.914ZM157.914 70H127.514V72H157.914V70Z" fill="black" mask="url(#path-1-outside-1_45_6)"/>
<path d="M5.76 98.24C4.752 98.24 3.976 97.96 3.432 97.4C2.888 96.84 2.616 96.056 2.616 95.048V87.728H0.84V86.624H2.616V83.648L3.936 83.216V86.624H7.224L7.152 87.728H3.936V95C3.936 95.736 4.104 96.28 4.44 96.632C4.792 96.984 5.36 97.16 6.144 97.16C6.352 97.16 6.568 97.144 6.792 97.112C7.032 97.064 7.288 96.992 7.56 96.896V97.952C7.032 98.144 6.432 98.24 5.76 98.24ZM13.7934 98.24C13.0734 98.24 12.4094 98.128 11.8014 97.904C11.2094 97.68 10.7294 97.328 10.3614 96.848C10.0094 96.352 9.83344 95.728 9.83344 94.976C9.83344 93.968 10.1534 93.152 10.7934 92.528C11.4334 91.888 12.5214 91.568 14.0574 91.568H18.3054V90.488C18.3054 89.768 18.2094 89.192 18.0174 88.76C17.8254 88.312 17.4734 87.992 16.9614 87.8C16.4654 87.608 15.7294 87.512 14.7534 87.512C14.0974 87.512 13.4654 87.568 12.8574 87.68C12.2494 87.792 11.6734 87.944 11.1294 88.136V87.008C11.6254 86.816 12.2014 86.664 12.8574 86.552C13.5294 86.44 14.2414 86.384 14.9934 86.384C16.5614 86.384 17.7134 86.704 18.4494 87.344C19.2014 87.968 19.5774 89.008 19.5774 90.464V98H18.4974L18.3774 96.584C17.8494 97.144 17.2254 97.56 16.5054 97.832C15.7854 98.104 14.8814 98.24 13.7934 98.24ZM14.1294 97.136C15.0414 97.136 15.8414 96.992 16.5294 96.704C17.2174 96.4 17.8094 95.952 18.3054 95.36V92.624H14.1054C12.9854 92.624 12.2094 92.824 11.7774 93.224C11.3454 93.624 11.1294 94.208 11.1294 94.976C11.1294 95.76 11.3934 96.32 11.9214 96.656C12.4654 96.976 13.2014 97.136 14.1294 97.136ZM23.3034 98V81.824H24.6234V92.096L30.4794 86.624H32.0634L27.3834 91.064L32.3274 98H30.9354L26.5194 91.808L24.6234 93.584V98H23.3034ZM39.045 98.24C36.997 98.24 35.501 97.76 34.557 96.8C33.629 95.824 33.165 94.304 33.165 92.24C33.165 90.416 33.573 88.984 34.389 87.944C35.221 86.904 36.565 86.384 38.421 86.384C39.525 86.384 40.421 86.592 41.109 87.008C41.797 87.408 42.301 87.952 42.621 88.64C42.957 89.328 43.125 90.096 43.125 90.944V93.008H34.485C34.549 94.48 34.933 95.544 35.637 96.2C36.341 96.84 37.565 97.16 39.309 97.16C40.365 97.16 41.389 96.96 42.381 96.56V97.64C41.405 98.04 40.293 98.24 39.045 98.24ZM34.485 91.976H41.925V90.896C41.925 89.84 41.653 89.008 41.109 88.4C40.565 87.792 39.677 87.488 38.445 87.488C36.941 87.488 35.901 87.88 35.325 88.664C34.765 89.432 34.485 90.536 34.485 91.976ZM54.3212 102.224C53.9852 102.224 53.6732 102.2 53.3852 102.152C53.1132 102.12 52.8492 102.056 52.5932 101.96V100.856C52.8652 100.952 53.1132 101.016 53.3372 101.048C53.5772 101.08 53.8172 101.096 54.0572 101.096C54.6172 101.096 55.0652 100.968 55.4012 100.712C55.7372 100.472 56.0332 100.112 56.2892 99.632C56.5452 99.168 56.8172 98.6 57.1052 97.928L52.1372 86.624H53.5052L57.7772 96.512L62.2172 86.624H63.5612L58.6412 97.64C58.2572 98.52 57.8732 99.304 57.4892 99.992C57.1212 100.68 56.6892 101.224 56.1932 101.624C55.6972 102.024 55.0732 102.224 54.3212 102.224ZM70.3168 98.24C68.3968 98.24 67.0128 97.736 66.1648 96.728C65.3168 95.72 64.8928 94.248 64.8928 92.312C64.8928 90.392 65.3248 88.928 66.1888 87.92C67.0528 86.896 68.4288 86.384 70.3168 86.384C72.2208 86.384 73.6048 86.896 74.4688 87.92C75.3328 88.928 75.7648 90.392 75.7648 92.312C75.7648 94.248 75.3328 95.72 74.4688 96.728C73.6208 97.736 72.2368 98.24 70.3168 98.24ZM70.3168 97.112C71.8368 97.112 72.9008 96.72 73.5088 95.936C74.1328 95.152 74.4448 93.944 74.4448 92.312C74.4448 90.696 74.1328 89.496 73.5088 88.712C72.8848 87.928 71.8208 87.536 70.3168 87.536C68.8128 87.536 67.7488 87.928 67.1248 88.712C66.5008 89.496 66.1888 90.696 66.1888 92.312C66.1888 93.944 66.5008 95.152 67.1248 95.936C67.7488 96.72 68.8128 97.112 70.3168 97.112ZM83.1683 98.24C81.8083 98.24 80.7763 97.856 80.0723 97.088C79.3683 96.32 79.0163 95.232 79.0163 93.824V86.624H80.3363V93.872C80.3363 94.96 80.6083 95.784 81.1523 96.344C81.6963 96.888 82.5523 97.16 83.7203 97.16C84.5203 97.16 85.2483 97.008 85.9043 96.704C86.5763 96.384 87.1523 95.984 87.6323 95.504V86.624H88.9523V98H87.7763L87.6563 96.608C87.0963 97.104 86.4563 97.504 85.7363 97.808C85.0163 98.096 84.1603 98.24 83.1683 98.24ZM92.7825 98V86.624H93.9345L94.0785 88.208C94.6705 87.792 95.3425 87.424 96.0945 87.104C96.8625 86.784 97.6145 86.544 98.3505 86.384V87.464C97.8865 87.576 97.3825 87.728 96.8385 87.92C96.3105 88.112 95.7985 88.328 95.3025 88.568C94.8225 88.792 94.4225 89.024 94.1025 89.264V98H92.7825ZM110.286 98.24C109.614 98.24 108.966 98.192 108.342 98.096C107.734 98.016 107.214 97.904 106.782 97.76V96.584C107.31 96.76 107.854 96.896 108.414 96.992C108.974 97.072 109.542 97.112 110.118 97.112C111.238 97.112 112.038 96.968 112.518 96.68C112.998 96.376 113.238 95.856 113.238 95.12C113.238 94.608 113.118 94.224 112.878 93.968C112.654 93.696 112.294 93.464 111.798 93.272C111.302 93.08 110.67 92.856 109.902 92.6C109.262 92.376 108.678 92.16 108.15 91.952C107.638 91.728 107.23 91.424 106.926 91.04C106.622 90.64 106.47 90.088 106.47 89.384C106.47 88.392 106.798 87.648 107.454 87.152C108.11 86.64 109.174 86.384 110.646 86.384C111.222 86.384 111.766 86.424 112.278 86.504C112.806 86.568 113.27 86.664 113.67 86.792V87.968C112.742 87.68 111.798 87.536 110.838 87.536C109.702 87.536 108.902 87.68 108.438 87.968C107.99 88.24 107.766 88.704 107.766 89.36C107.766 89.808 107.862 90.16 108.054 90.416C108.262 90.656 108.582 90.864 109.014 91.04C109.462 91.216 110.038 91.416 110.742 91.64C111.59 91.912 112.294 92.184 112.854 92.456C113.43 92.728 113.854 93.072 114.126 93.488C114.414 93.888 114.558 94.432 114.558 95.12C114.558 96.24 114.174 97.04 113.406 97.52C112.654 98 111.614 98.24 110.286 98.24ZM117.924 98V81.824H119.244V87.992C119.804 87.512 120.444 87.128 121.164 86.84C121.9 86.536 122.78 86.384 123.804 86.384C125.18 86.384 126.196 86.712 126.852 87.368C127.524 88.024 127.86 89.064 127.86 90.488V98H126.54V90.512C126.54 89.392 126.3 88.608 125.82 88.16C125.356 87.712 124.516 87.488 123.3 87.488C122.516 87.488 121.772 87.648 121.068 87.968C120.364 88.272 119.756 88.672 119.244 89.168V98H117.924ZM136.28 98.24C134.36 98.24 132.976 97.736 132.128 96.728C131.28 95.72 130.856 94.248 130.856 92.312C130.856 90.392 131.288 88.928 132.152 87.92C133.016 86.896 134.392 86.384 136.28 86.384C138.184 86.384 139.568 86.896 140.432 87.92C141.296 88.928 141.728 90.392 141.728 92.312C141.728 94.248 141.296 95.72 140.432 96.728C139.584 97.736 138.2 98.24 136.28 98.24ZM136.28 97.112C137.8 97.112 138.864 96.72 139.472 95.936C140.096 95.152 140.408 93.944 140.408 92.312C140.408 90.696 140.096 89.496 139.472 88.712C138.848 87.928 137.784 87.536 136.28 87.536C134.776 87.536 133.712 87.928 133.088 88.712C132.464 89.496 132.152 90.696 132.152 92.312C132.152 93.944 132.464 95.152 133.088 95.936C133.712 96.72 134.776 97.112 136.28 97.112ZM146.494 98L143.542 86.624H144.862L147.358 96.656L150.214 87.872V86.624H151.246L154.366 96.656L156.838 86.624H158.158L155.206 98H153.79L150.886 88.952L147.934 98H146.494Z" fill="black"/>
</svg>
